# xmcd CD database file
#
# Track frame offsets:
#	150
#	14935
#	46720
#	63680
#	95865
#	121725
#	136950
#	172380
#	186760
#
# Disc length: 2706 seconds
#
# Revision: 0
# Processed by: cddbd v1.4PL0 Copyright (c) Steve Scherf et al.
# Submitted via: CDex 1.50beta10
#
DISCID=870a9009
DTITLE=J. C. Smith Band - The Midnight Creeper
DYEAR=2003
DGENRE=Blues
TTITLE0=Talk About Love
TTITLE1=I'll Play The Blues For You
TTITLE2=Tell Me What's The Reason
TTITLE3=Texas Flood
TTITLE4=Don't Let The Green Grass Fool You
TTITLE5=Person To Person
TTITLE6=Stone Crazy
TTITLE7=Wait On Time
TTITLE8=Same Old Blues
EXTD=YEAR: 2003
EXTT0=
EXTT1=
EXTT2=
EXTT3=
EXTT4=
EXTT5=
EXTT6=
EXTT7=
EXTT8=
PLAYORDER=
